<?xml version="1.0" standalone="no"?>
<!DOCTYPE svg PUBLIC "-//W3C//DTD SVG 20010904//EN"
 "http://www.w3.org/TR/2001/REC-SVG-20010904/DTD/svg10.dtd">
<svg version="1.0" xmlns="http://www.w3.org/2000/svg"
 width="16.000000pt" height="16.000000pt" viewBox="0 0 16.000000 16.000000"
 preserveAspectRatio="xMidYMid meet">
<metadata>
Created by potrace 1.11, written by Peter Selinger 2001-2013
</metadata>
<g transform="translate(0.000000,16.000000) scale(0.002667,-0.002667)"
fill="#000000" stroke="none">
<path d="M2846 5550 c-415 -66 -755 -348 -887 -736 -53 -159 -59 -224 -59
-706 l0 -438 -255 0 -255 0 0 -1415 0 -1415 360 0 360 0 0 68 c1 168 72 342
193 465 77 80 160 139 251 178 l56 24 0 131 0 131 -60 22 c-123 45 -233 190
-247 325 -5 50 -12 65 -49 109 -63 73 -88 142 -88 248 0 80 3 93 37 162 43 87
99 142 186 183 45 22 75 28 152 32 l95 4 28 54 c37 71 121 147 194 175 43 17
78 23 142 23 155 0 275 -75 342 -212 l33 -67 5 -657 5 -657 90 -45 c154 -77
272 -191 342 -331 45 -88 63 -158 70 -267 l6 -98 359 0 358 0 0 1415 0 1415
-255 0 -255 0 0 439 c0 466 -6 539 -52 681 -54 168 -147 321 -271 445 -156
155 -339 255 -552 301 -85 19 -298 26 -379 14z m288 -560 c43 -11 103 -34 135
-52 78 -44 179 -149 219 -228 57 -115 62 -159 62 -622 l0 -418 -551 0 -550 0
3 453 c4 438 4 454 26 511 44 118 104 197 205 272 128 95 290 125 451 84z"/>
<path d="M2954 2906 c-59 -26 -74 -58 -74 -157 l0 -89 -184 0 c-174 0 -185 -1
-217 -23 -63 -43 -72 -132 -18 -186 30 -30 65 -41 136 -41 l44 0 -35 -35 c-39
-39 -51 -82 -43 -152 11 -99 66 -133 215 -133 l102 0 0 -355 0 -355 -27 -5
c-223 -47 -393 -168 -455 -325 -16 -40 -22 -78 -22 -140 -1 -76 3 -92 31 -153
63 -133 201 -238 378 -289 114 -32 316 -32 430 0 316 91 478 337 385 584 -57
153 -231 276 -452 323 l-28 5 0 729 0 728 -22 28 c-21 26 -74 55 -100 55 -7
-1 -27 -7 -44 -14z m174 -1781 c151 -35 259 -131 249 -222 -8 -77 -76 -142
-193 -185 -84 -32 -282 -32 -364 -2 -167 62 -236 166 -177 266 72 124 289 187
485 143z"/>
</g>
</svg>
